<svg width="100" height="100" viewBox="0 0 100 100" fill="none" xmlns="http://www.w3.org/2000/svg">
<g clip-path="url(#clip0_40_609)">
<rect width="100" height="100" fill="url(#paint0_linear_40_609)"/>
<path d="M114.613 62.3889C125.814 88.5611 114.673 118.432 89.7285 129.108C64.7842 139.783 35.4826 127.221 24.2814 101.049C13.0803 74.8764 24.2213 45.0053 49.1656 34.3297C74.1099 23.6541 103.411 36.2166 114.613 62.3889Z" fill="#77ED9C"/>
<path d="M41.0078 67.4278C41.0078 68.6444 40.0216 69.6307 38.805 69.6307C37.5884 69.6307 36.6021 68.6444 36.6021 67.4278C36.6021 66.2112 37.5884 65.225 38.805 65.225C40.0216 65.225 41.0078 66.2112 41.0078 67.4278Z" fill="black"/>
<path d="M65.6797 44.5182C65.6797 45.7348 64.6935 46.721 63.4769 46.721C62.2603 46.721 61.274 45.7348 61.274 44.5182C61.274 43.3016 62.2603 42.3153 63.4769 42.3153C64.6935 42.3153 65.6797 43.3016 65.6797 44.5182Z" fill="black"/>
<path d="M64.7776 61.7049C66.148 63.4981 65.64 66.1891 63.6428 67.7153C61.6457 69.2416 58.9158 69.0252 57.5453 67.232C56.1749 65.4388 58.9281 65.6856 60.9252 64.1594C62.9224 62.6331 63.4072 59.9117 64.7776 61.7049Z" fill="black"/>
</g>
<defs>
<linearGradient id="paint0_linear_40_609" x1="100" y1="100" x2="1.19209e-05" y2="1.19209e-05" gradientUnits="userSpaceOnUse">
<stop stop-color="#22C55E"/>
<stop offset="1" stop-color="#06B6D4"/>
</linearGradient>
<clipPath id="clip0_40_609">
<rect width="100" height="100" fill="white"/>
</clipPath>
</defs>
</svg>
