<svg width="100" height="100" viewBox="0 0 100 100" fill="none" xmlns="http://www.w3.org/2000/svg">
<g clip-path="url(#clip0_40_615)">
<rect width="100" height="100" fill="url(#paint0_linear_40_615)"/>
<path d="M61.0947 107.733C44.0262 128.069 14.477 131.368 -4.90526 115.1C-24.2876 98.8324 -26.1633 69.1589 -9.09476 48.8225C7.97374 28.486 37.5229 25.1876 56.9052 41.4553C76.2875 57.7229 78.1632 87.3965 61.0947 107.733Z" fill="#77B8ED"/>
<path d="M36.4239 44.4597C36.4239 45.5943 35.5041 46.5141 34.3695 46.5141C33.2349 46.5141 32.3151 45.5943 32.3151 44.4597C32.3151 43.3251 33.2349 42.4053 34.3695 42.4053C35.5041 42.4053 36.4239 43.3251 36.4239 44.4597Z" fill="black"/>
<path d="M52.8592 59.2514C52.8592 60.386 51.9394 61.3058 50.8047 61.3058C49.6701 61.3058 48.7503 60.386 48.7503 59.2514C48.7503 58.1168 49.6701 57.197 50.8047 57.197C51.9394 57.197 52.8592 58.1168 52.8592 59.2514Z" fill="black"/>
<path d="M32.2955 55.5577C33.5736 57.23 33.0998 59.7397 31.2372 61.1631C29.3746 62.5865 26.8287 62.3847 25.5506 60.7123C24.2725 59.04 26.8402 59.2701 28.7027 57.8467C30.5653 56.4233 31.0174 53.8853 32.2955 55.5577Z" fill="black"/>
</g>
<defs>
<linearGradient id="paint0_linear_40_615" x1="100" y1="1.19209e-05" x2="1.19209e-05" y2="100" gradientUnits="userSpaceOnUse">
<stop stop-color="#3B82F6"/>
<stop offset="1" stop-color="#60A5FA"/>
</linearGradient>
<clipPath id="clip0_40_615">
<rect width="100" height="100" fill="white"/>
</clipPath>
</defs>
</svg>
