<svg width="100" height="100" viewBox="0 0 100 100" fill="none" xmlns="http://www.w3.org/2000/svg">
<g clip-path="url(#clip0_40_621)">
<rect width="100" height="100" fill="url(#paint0_linear_40_621)"/>
<path d="M44.7182 -5.18647C63.3403 -19.9952 89.878 -17.6122 103.992 0.136162C118.106 17.8845 114.451 44.2772 95.8293 59.086C77.2072 73.8947 50.6694 71.5117 36.5555 53.7633C22.4416 36.015 26.0962 9.62226 44.7182 -5.18647Z" fill="#F6EC94"/>
<path d="M53.1975 52.1579C53.1665 51.1416 53.9653 50.2926 54.9815 50.2616C55.9978 50.2306 56.8469 51.0294 56.8779 52.0457C56.9089 53.062 56.1101 53.911 55.0938 53.942C54.0775 53.973 53.2285 53.1742 53.1975 52.1579Z" fill="black"/>
<path d="M38.072 39.3578C38.041 38.3415 38.8397 37.4925 39.856 37.4615C40.8723 37.4305 41.7213 38.2292 41.7523 39.2455C41.7833 40.2618 40.9846 41.1108 39.9683 41.1418C38.952 41.1728 38.103 40.3741 38.072 39.3578Z" fill="black"/>
<path d="M56.9178 38.4968C58.3604 37.2817 61.447 36.6107 62.8003 38.2174C64.1537 39.8241 63.2613 43.1001 61.8187 44.3152C60.376 45.5303 56.5458 46.7047 55.1925 45.0981C53.8391 43.4914 55.4752 39.712 56.9178 38.4968Z" fill="black"/>
</g>
<defs>
<linearGradient id="paint0_linear_40_621" x1="100" y1="1.19209e-05" x2="1.19209e-05" y2="100" gradientUnits="userSpaceOnUse">
<stop stop-color="#EAB308"/>
<stop offset="1" stop-color="#FCD34D"/>
</linearGradient>
<clipPath id="clip0_40_621">
<rect width="100" height="100" fill="white"/>
</clipPath>
</defs>
</svg>
