<svg width="100" height="100" viewBox="0 0 100 100" fill="none" xmlns="http://www.w3.org/2000/svg">
<g clip-path="url(#clip0_40_627)">
<rect width="100" height="100" fill="url(#paint0_linear_40_627)"/>
<path d="M93 86.1168C93 111.034 73.7483 131.234 50 131.234C26.2518 131.234 7 111.034 7 86.1168C7 61.1995 26.2518 41 50 41C73.7483 41 93 61.1995 93 86.1168Z" fill="#FF9193"/>
<path d="M35.2881 56.692C35.2545 55.59 36.1206 54.6694 37.2226 54.6358C38.3246 54.6022 39.2453 55.4683 39.2789 56.5703C39.3125 57.6723 38.4464 58.5929 37.3444 58.6266C36.2423 58.6602 35.3217 57.7941 35.2881 56.692Z" fill="black"/>
<path d="M53.6542 56.6918C53.6206 55.5898 54.4867 54.6692 55.5888 54.6356C56.6908 54.6019 57.6114 55.468 57.645 56.57C57.6786 57.672 57.091 57.336 55.989 57.3696C54.8869 57.4032 53.6879 57.7938 53.6542 56.6918Z" fill="black"/>
<path d="M52.6481 68.981C52.6481 71.0263 50.6809 69.3477 48.403 69.3477C46.1251 69.3477 44.3991 71.0263 44.3991 68.981C44.3991 66.9357 46.1251 67.3514 48.403 67.3514C50.6809 67.3514 52.6481 66.9357 52.6481 68.981Z" fill="black"/>
</g>
<defs>
<linearGradient id="paint0_linear_40_627" x1="50" y1="100" x2="50" y2="9.73536e-06" gradientUnits="userSpaceOnUse">
<stop stop-color="#F43F5E"/>
<stop offset="1" stop-color="#FB7185"/>
</linearGradient>
<clipPath id="clip0_40_627">
<rect width="100" height="100" fill="white"/>
</clipPath>
</defs>
</svg>
