<svg width="100" height="100" viewBox="0 0 100 100" fill="none" xmlns="http://www.w3.org/2000/svg">
<g clip-path="url(#clip0_40_633)">
<rect width="100" height="100" fill="url(#paint0_linear_40_633)"/>
<path d="M90.5 13C120.047 13 144 32.9233 144 57.5C144 82.0767 120.047 102 90.5 102C60.9528 102 37 82.0767 37 57.5C37 32.9233 60.9528 13 90.5 13Z" fill="#B677ED"/>
<path d="M47.2981 63.7434C48.1945 64.5837 47.4919 65.2938 46.6025 66.1408C45.7132 66.9877 44.9739 67.6507 44.0776 66.8104C43.1812 65.9701 43.1755 64.6024 44.0648 63.7554C44.9541 62.9085 46.4018 62.9031 47.2981 63.7434Z" fill="black"/>
<path d="M61.3186 67.3435C59.7491 65.7006 59.3819 64.4932 61.3186 62.8416C63.2552 61.1901 64.8535 61.3802 66.423 63.0231C67.9924 64.6661 64.5435 62.7611 62.6068 64.4126C60.6702 66.0642 62.888 68.9864 61.3186 67.3435Z" fill="black"/>
<path d="M64.6589 45.5843C65.5799 46.4004 64.8731 47.1536 64.0094 48.0238C63.1456 48.8941 62.452 49.5518 61.531 48.7357C60.6099 47.9196 60.5635 46.5526 61.4272 45.6823C62.2909 44.8121 63.7378 44.7682 64.6589 45.5843Z" fill="black"/>
</g>
<defs>
<linearGradient id="paint0_linear_40_633" x1="100" y1="100" x2="1.19209e-05" y2="1.19209e-05" gradientUnits="userSpaceOnUse">
<stop stop-color="#6E3CE0"/>
<stop offset="1" stop-color="#FF72C0"/>
</linearGradient>
<clipPath id="clip0_40_633">
<rect width="100" height="100" fill="white"/>
</clipPath>
</defs>
</svg>
