<svg width="100" height="100" viewBox="0 0 100 100" fill="none" xmlns="http://www.w3.org/2000/svg">
<g clip-path="url(#clip0_40_639)">
<rect width="100" height="100" fill="url(#paint0_linear_40_639)"/>
<path d="M-5.9694 53.2126C-20.898 33.5401 -18.9606 6.93848 -1.64208 -6.20378C15.6764 -19.346 41.8179 -14.0523 56.7464 5.62021C71.675 25.2927 69.7376 51.8943 52.4191 65.0366C35.1006 78.1788 8.95919 72.885 -5.9694 53.2126Z" fill="#ED9A77"/>
<path d="M49.5512 54.4622C49.5512 55.5176 48.6956 56.3731 47.6403 56.3731C46.5849 56.3731 45.7294 55.5176 45.7294 54.4622C45.7294 53.4068 46.5849 52.5513 47.6403 52.5513C48.6956 52.5513 49.5512 53.4068 49.5512 54.4622Z" fill="black"/>
<path d="M54.9017 34.5888C54.9017 35.6441 54.0462 36.4997 52.9908 36.4997C51.9354 36.4997 51.0799 35.6441 51.0799 34.5888C51.0799 33.5334 51.9354 32.6779 52.9908 32.6779C54.0462 32.6779 54.9017 33.5334 54.9017 34.5888Z" fill="black"/>
<path d="M32.9445 46.088C31.5685 44.6953 31.7104 42.324 33.2614 40.7914C34.8125 39.2589 37.1853 39.1456 38.5614 40.5382C39.9374 41.9309 37.5412 42.0206 35.9902 43.5532C34.4391 45.0857 34.3206 47.4806 32.9445 46.088Z" fill="black"/>
</g>
<defs>
<linearGradient id="paint0_linear_40_639" x1="100" y1="100" x2="5.96046e-06" y2="1.78814e-05" gradientUnits="userSpaceOnUse">
<stop stop-color="#F97316"/>
<stop offset="1" stop-color="#C05555"/>
</linearGradient>
<clipPath id="clip0_40_639">
<rect width="100" height="100" fill="white"/>
</clipPath>
</defs>
</svg>
