<svg width="100" height="100" viewBox="0 0 100 100" fill="none" xmlns="http://www.w3.org/2000/svg">
<g clip-path="url(#clip0_40_645)">
<rect width="100" height="100" fill="url(#paint0_linear_40_645)"/>
<path d="M64.0749 102.213C48.3997 123.933 20.7628 129.926 2.34621 115.599C-16.0704 101.271 -18.2927 72.0484 -2.6175 50.3281C13.0577 28.6078 40.6946 22.6148 59.1112 36.9424C77.5278 51.27 79.7501 80.4925 64.0749 102.213Z" fill="#7781ED"/>
<path d="M37.0598 40.4025C37.5593 39.9385 38.3251 39.9809 38.7702 40.4974L40.935 43.0093C41.3801 43.5258 41.336 44.3207 40.8365 44.7847C40.337 45.2488 39.5712 45.2063 39.1261 44.6898L36.9613 42.1779C36.5162 41.6615 36.5603 40.8666 37.0598 40.4025Z" fill="black"/>
<path d="M54.051 54.6837C54.5505 54.2196 55.3163 54.2621 55.7614 54.7785L57.9262 57.2904C58.3713 57.8069 58.3272 58.6018 57.8277 59.0659C57.3282 59.5299 56.5624 59.4874 56.1173 58.971L53.9525 56.4591C53.5074 55.9426 53.5515 55.1477 54.051 54.6837Z" fill="black"/>
<path d="M33.8223 64.7654C34.3596 64.2662 35.1476 64.1911 35.76 64.5808L36.6381 65.1395C37.114 65.4423 37.4887 65.8892 37.7119 66.4204L38.0312 67.1802C38.3136 67.8521 38.1475 68.638 37.6194 69.1286L36.9552 69.7457C36.8016 69.8883 36.5759 69.9083 36.4023 69.7945L36.2864 69.7185C34.88 68.7963 33.759 67.4745 33.0559 65.9093C32.9746 65.7284 33.0174 65.5131 33.1612 65.3795L33.8223 64.7654Z" fill="black"/>
</g>
<defs>
<linearGradient id="paint0_linear_40_645" x1="1.19209e-05" y1="100" x2="100" y2="1.19209e-05" gradientUnits="userSpaceOnUse">
<stop stop-color="#0EA5E9"/>
<stop offset="1" stop-color="#38BDF8"/>
</linearGradient>
<clipPath id="clip0_40_645">
<rect width="100" height="100" fill="white"/>
</clipPath>
</defs>
</svg>
