<svg width="100" height="100" viewBox="0 0 100 100" fill="none" xmlns="http://www.w3.org/2000/svg">
<g clip-path="url(#clip0_40_651)">
<rect width="100" height="100" fill="url(#paint0_linear_40_651)"/>
<path d="M2 13.5C2 -13.8381 24.5407 -36 52.3462 -36C80.1516 -36 102.692 -13.8381 102.692 13.5C102.692 40.8381 80.1516 63 52.3462 63C24.5407 63 2 40.8381 2 13.5Z" fill="#77EDE9"/>
<path d="M72.645 35.5C72.645 36.6683 71.6979 37.6154 70.5296 37.6154C69.3613 37.6154 68.4142 36.6683 68.4142 35.5C68.4142 34.3317 69.3613 33.3846 70.5296 33.3846C71.6979 33.3846 72.645 34.3317 72.645 35.5Z" fill="black"/>
<path d="M45.568 49.8846C45.568 51.0529 44.621 52 43.4527 52C42.2844 52 41.3373 51.0529 41.3373 49.8846C41.3373 48.7163 42.2844 47.7692 43.4527 47.7692C44.621 47.7692 45.568 48.7163 45.568 49.8846Z" fill="black"/>
<path d="M46.394 29.1582C47.71 30.8802 47.2221 33.4643 45.3043 34.93C43.3865 36.3956 40.7649 36.1878 39.4489 34.4658C38.1329 32.7438 40.7768 32.9808 42.6946 31.5152C44.6125 30.0495 45.078 27.4362 46.394 29.1582Z" fill="black"/>
</g>
<defs>
<linearGradient id="paint0_linear_40_651" x1="50" y1="1.19209e-05" x2="50" y2="100" gradientUnits="userSpaceOnUse">
<stop stop-color="#06B6D4"/>
<stop offset="1" stop-color="#67E8F9"/>
</linearGradient>
<clipPath id="clip0_40_651">
<rect width="100" height="100" fill="white"/>
</clipPath>
</defs>
</svg>
