<svg width="100" height="100" viewBox="0 0 100 100" fill="none" xmlns="http://www.w3.org/2000/svg">
<g clip-path="url(#clip0_40_657)">
<rect width="100" height="100" fill="url(#paint0_linear_40_657)"/>
<path d="M93.6126 58.389C104.814 84.5612 93.6728 114.432 68.7285 125.108C43.7842 135.783 14.4826 123.221 3.28145 97.0487C-7.91968 70.8765 3.22133 41.0054 28.1656 30.3298C53.1099 19.6542 82.4115 32.2167 93.6126 58.389Z" fill="#969696"/>
<path d="M63.5648 46.015C63.209 45.9669 62.8816 46.2163 62.8335 46.572C62.7854 46.9278 63.0347 47.2552 63.3905 47.3033L65.269 47.5575L65.0148 49.4359C64.9667 49.7917 65.216 50.1191 65.5718 50.1672C65.9275 50.2153 66.2549 49.966 66.3031 49.6102L66.5572 47.7317L68.4357 47.9859C68.7914 48.034 69.1188 47.7847 69.167 47.4289C69.2151 47.0732 68.9657 46.7458 68.61 46.6976L66.7315 46.4435L66.9857 44.565C67.0338 44.2093 66.7844 43.8819 66.4287 43.8337C66.0729 43.7856 65.7455 44.035 65.6974 44.3907L65.4433 46.2692L63.5648 46.015Z" fill="black"/>
<path d="M43.8185 62.1038C43.4654 62.0388 43.1265 62.2723 43.0615 62.6253C42.9964 62.9783 43.2299 63.3173 43.5829 63.3823L45.4471 63.7258L45.1036 65.59C45.0386 65.9431 45.272 66.282 45.6251 66.347C45.9781 66.4121 46.317 66.1786 46.3821 65.8256L46.7256 63.9614L48.5898 64.3049C48.9428 64.3699 49.2818 64.1365 49.3468 63.7834C49.4119 63.4304 49.1784 63.0915 48.8254 63.0264L46.9612 62.6829L47.3047 60.8187C47.3697 60.4657 47.1362 60.1267 46.7832 60.0617C46.4302 59.9966 46.0912 60.2301 46.0262 60.5831L45.6827 62.4473L43.8185 62.1038Z" fill="black"/>
<path d="M59.9953 69.0102C58.8934 67.0406 59.7784 64.449 61.972 63.2218C64.1656 61.9946 66.8371 62.5964 67.9391 64.566C69.041 66.5356 66.3507 65.9004 64.1571 67.1276C61.9635 68.3548 61.0972 70.9798 59.9953 69.0102Z" fill="black"/>
</g>
<defs>
<linearGradient id="paint0_linear_40_657" x1="50" y1="100" x2="50" y2="9.73536e-06" gradientUnits="userSpaceOnUse">
<stop stop-color="#64748B"/>
<stop offset="1" stop-color="#94A3B8"/>
</linearGradient>
<clipPath id="clip0_40_657">
<rect width="100" height="100" fill="white"/>
</clipPath>
</defs>
</svg>
